<svg xmlns="http://www.w3.org/2000/svg" viewBox="-140.5 -1104.5 3413.0 1583.0" role="img" aria-label="فتبيّنوا" xmlns:c2pa="http://c2pa.org/manifest"><metadata><c2pa:manifest>AAAWgmp1bWIAAAAeanVtZGMycGEAEQAQgAAAqgA4m3EDYzJwYQAAABZcanVtYgAAAEdqdW1kYzJtYQARABCAAACqADibcQN1cm46YzJwYTpkYmQ5M2U4Mi1iZDMyLTQ5OTctYWQ5Yy0zNGMwNDAwYzk2MDUAAAADl2p1bWIAAAApanVtZGMyYXMAEQAQgAAAqgA4m3EDYzJwYS5hc3NlcnRpb25zAAAAALxqdW1iAAAARGp1bWRjYm9yABEAEIAAAKoAOJtxE2MycGEuaW5ncmVkaWVudC52MwAAAAAYYzJzaGdffyoCA9uLj9IkPo0UyNwAAABwY2JvcqNpZGM6Zm9ybWF0bWltYWdlL3N2Zyt4bWxqaW5zdGFuY2VJRHgseG1wOmlpZDozNmE0MzFlNC0yNjMxLTQxYzctYWVkNC05NjEwOWVhOGE2ZTVscmVsYXRpb25zaGlwaHBhcmVudE9mAAAB4mp1bWIAAABBanVtZGNib3IAEQAQgAAAqgA4m3ETYzJwYS5hY3Rpb25zLnYyAAAAABhjMnNoFf0pXHw+TABk/tQgCJe7lQAAAZljYm9yomdhY3Rpb25zgqJmYWN0aW9ua2MycGEub3BlbmVkanBhcmFtZXRlcnOha2luZ3JlZGllbnRzgaJjdXJseC1zZWxmI2p1bWJmPWMycGEuYXNzZXJ0aW9ucy9jMnBhLmluZ3JlZGllbnQudjNkaGFzaFggDcxw3h6H86g0RYtQTZC251s7ONU5dVgQvzIxsaRGQ8CkZmFjdGlvbngdY29tLmFudGhyb3BpYy5jbGF1ZGUucHJvdmlkZWRqcGFyYW1ldGVyc6F4H2NvbS5hbnRocm9waWMub3JpZ2luLWNvbmZpZGVuY2VndW5rbm93bmtkZXNjcmlwdGlvbnhmQ2xhdWRlIHByb3ZpZGVkIHRoaXMgZmlsZSBhdCB0aGUgcmVxdWVzdCBvZiBhIHVzZXIgYW5kIG1heSBoYXZlIGNyZWF0ZWQgb3IgbW9kaWZpZWQgdGhlIGZpbGUgY29udGVudHMubXNvZnR3YXJlQWdlbnShZG5hbWVmQ2xhdWRlcmFsbEFjdGlvbnNJbmNsdWRlZPUAAADIanVtYgAAAEBqdW1kY2JvcgARABCAAACqADibcRNjMnBhLmhhc2guZGF0YQAAAAAYYzJzaCIDckI6cTrwXBft1oltzTIAAACAY2JvcqVjYWxnZnNoYTI1NmNwYWRNAAAAAAAAAAAAAAAAAGRoYXNoWCA3l+VymJfhrdRPFND2rYQO2K3tyUBl2s0MF0IebvAXZGRuYW1lbmp1bWJmIG1hbmlmZXN0amV4Y2x1c2lvbnOBomVzdGFydBi3Zmxlbmd0aBkeBAAAAj5qdW1iAAAAJ2p1bWRjMmNsABEAEIAAAKoAOJtxA2MycGEuY2xhaW0udjIAAAACD2Nib3KlY2FsZ2ZzaGEyNTZpc2lnbmF0dXJleE1zZWxmI2p1bWJmPS9jMnBhL3VybjpjMnBhOmRiZDkzZTgyLWJkMzItNDk5Ny1hZDljLTM0YzA0MDBjOTYwNS9jMnBhLnNpZ25hdHVyZWppbnN0YW5jZUlEeCx4bXA6aWlkOmJhY2E4ZGUwLWVhODItNDNlNi1iZTEzLWNjYjE5ZTJjODYyNnJjcmVhdGVkX2Fzc2VydGlvbnODomN1cmx4LXNlbGYjanVtYmY9YzJwYS5hc3NlcnRpb25zL2MycGEuaW5ncmVkaWVudC52M2RoYXNoWCANzHDeHofzqDRFi1BNkLbnWzs41Tl1WBC/MjGxpEZDwKJjdXJseCpzZWxmI2p1bWJmPWMycGEuYXNzZXJ0aW9ucy9jMnBhLmFjdGlvbnMudjJkaGFzaFggNC6FTItZUAwRoM5PjvIBPQvGGJTPAwCusRlW8/ipA2yiY3VybHgpc2VsZiNqdW1iZj1jMnBhLmFzc2VydGlvbnMvYzJwYS5oYXNoLmRhdGFkaGFzaFggbnYEHpmjpcVLzyPY8wZJC60MItZ54wkbbeUvU8pdP8V0Y2xhaW1fZ2VuZXJhdG9yX2luZm+jZG5hbWVvQW50aHJvcGljIEZpbGVzZ3ZlcnNpb25lMS4wLjBrc3BlY1ZlcnNpb25lMi40LjAAABA4anVtYgAAAChqdW1kYzJjcwARABCAAACqADibcQNjMnBhLnNpZ25hdHVyZQAAABAIY2JvctKEWQISogEmGCFZAgowggIGMIIBjaADAgECAhRA5aAK7sI50L64g/oGQgU9Z1UTADAKBggqhkjOPQQDAzBJMRcwFQYDVQQKEw5BbnRocm9waWMsIFBCQzEuMCwGA1UEAxMlQW50aHJvcGljIENvbnRlbnQgQ3JlZGVudGlhbHMgUm9vdCBDQTAeFw0yNjA4MDcxODQzNTZaFw0yODA4MDYxOTQzNTZaMEQxFzAVBgNVBAoTDkFudGhyb3BpYywgUEJDMSkwJwYDVQQDEyBBbnRocm9waWMgQ2xhdWRlIENvbnRlbnQgU2lnbmluZzBZMBMGByqGSM49AgEGCCqGSM49AwEHA0IABJh6CmvLUBgFFNU0vUKlOVtE6djd17L5SuwX0LemFisBM3dkd/3cyjxFA3Qo5S46fX0/ihY0VZ7mfb9KF703t5OjWDBWMA4GA1UdDwEB/wQEAwIHgDAVBgNVHSUEDjAMBgorBgEEAYPoXgIBMAwGA1UdEwEB/wQCMAAwHwYDVR0jBBgwFoAUzlHiBIFOZFsj+OPEz5o+nMHXXMIwCgYIKoZIzj0EAwMDZwAwZAIwMXMdFJ4BetLLVY7ORuE9noqbbAZOZn/aArXyTwFAZfKrPzxF2vPoJNf1+UCdg1XGAjBwX1zd9WGqYkqmL5SFqw1QySjr1zJfpJM9+1rdDwSPLMOPOjKuiXjoU/pUUeG9RwmhY3BhZFkNngAAAAAAAAAAAAAAAAAAAAAAAAAAAAAAAAAAAAAAAAAAAAAAAAAAAAAAAAAAAAAAAAAAAAAAAAAAAAAAAAAAAAAAAAAAAAAAAAAAAAAAAAAAAAAAAAAAAAAAAAAAAAAAAAAAAAAAAAAAAAAAAAAAAAAAAAAAAAAAAAAAAAAAAAAAAAAAAAAAAAAAAAAAAAAAAAAAAAAAAAAAAAAAAAAAAAAAAAAAAAAAAAAAAAAAAAAAAAAAAAAAAAAAAAAAAAAAAAAAAAAAAAAAAAAAAAAAAAAAAAAAAAAAAAAAAAAAAAAAAAAAAAAAAAAAAAAAAAAAAAAAAAAAAAAAAAAAAAAAAAAAAAAAAAAAAAAAAAAAAAAAAAAAAAAAAAAAAAAAAAAAAAAAAAAAAAAAAAAAAAAAAAAAAAAAAAAAAAAAAAAAAAAAAAAAAAAAAAAAAAAAAAAAAAAAAAAAAAAAAAAAAAAAAAAAAAAAAAAAAAAAAAAAAAAAAAAAAAAAAAAAAAAAAAAAAAAAAAAAAAAAAAAAAAAAAAAAAAAAAAAAAAAAAAAAAAAAAAAAAAAAAAAAAAAAAAAAAAAAAAAAAAAAAAAAAAAAAAAAAAAAAAAAAAAAAAAAAAAAAAAAAAAAAAAAAAAAAAAAAAAAAAAAAAAAAAAAAAAAAAAAAAAAAAAAAAAAAAAAAAAAAAAAAAAAAAAAAAAAAAAAAAAAAAAAAAAAAAAAAAAAAAAAAAAAAAAAAAAAAAAAAAAAAAAAAAAAAAAAAAAAAAAAAAAAAAAAAAAAAAAAAAAAAAAAAAAAAAAAAAAAAAAAAAAAAAAAAAAAAAAAAAAAAAAAAAAAAAAAAAAAAAAAAAAAAAAAAAAAAAAAAAAAAAAAAAAAAAAAAAAAAAAAAAAAAAAAAAAAAAAAAAAAAAAAAAAAAAAAAAAAAAAAAAAAAAAAAAAAAAAAAAAAAAAAAAAAAAAAAAAAAAAAAAAAAAAAAAAAAAAAAAAAAAAAAAAAAAAAAAAAAAAAAAAAAAAAAAAAAAAAAAAAAAAAAAAAAAAAAAAAAAAAAAAAAAAAAAAAAAAAAAAAAAAAAAAAAAAAAAAAAAAAAAAAAAAAAAAAAAAAAAAAAAAAAAAAAAAAAAAAAAAAAAAAAAAAAAAAAAAAAAAAAAAAAAAAAAAAAAAAAAAAAAAAAAAAAAAAAAAAAAAAAAAAAAAAAAAAAAAAAAAAAAAAAAAAAAAAAAAAAAAAAAAAAAAAAAAAAAAAAAAAAAAAAAAAAAAAAAAAAAAAAAAAAAAAAAAAAAAAAAAAAAAAAAAAAAAAAAAAAAAAAAAAAAAAAAAAAAAAAAAAAAAAAAAAAAAAAAAAAAAAAAAAAAAAAAAAAAAAAAAAAAAAAAAAAAAAAAAAAAAAAAAAAAAAAAAAAAAAAAAAAAAAAAAAAAAAAAAAAAAAAAAAAAAAAAAAAAAAAAAAAAAAAAAAAAAAAAAAAAAAAAAAAAAAAAAAAAAAAAAAAAAAAAAAAAAAAAAAAAAAAAAAAAAAAAAAAAAAAAAAAAAAAAAAAAAAAAAAAAAAAAAAAAAAAAAAAAAAAAAAAAAAAAAAAAAAAAAAAAAAAAAAAAAAAAAAAAAAAAAAAAAAAAAAAAAAAAAAAAAAAAAAAAAAAAAAAAAAAAAAAAAAAAAAAAAAAAAAAAAAAAAAAAAAAAAAAAAAAAAAAAAAAAAAAAAAAAAAAAAAAAAAAAAAAAAAAAAAAAAAAAAAAAAAAAAAAAAAAAAAAAAAAAAAAAAAAAAAAAAAAAAAAAAAAAAAAAAAAAAAAAAAAAAAAAAAAAAAAAAAAAAAAAAAAAAAAAAAAAAAAAAAAAAAAAAAAAAAAAAAAAAAAAAAAAAAAAAAAAAAAAAAAAAAAAAAAAAAAAAAAAAAAAAAAAAAAAAAAAAAAAAAAAAAAAAAAAAAAAAAAAAAAAAAAAAAAAAAAAAAAAAAAAAAAAAAAAAAAAAAAAAAAAAAAAAAAAAAAAAAAAAAAAAAAAAAAAAAAAAAAAAAAAAAAAAAAAAAAAAAAAAAAAAAAAAAAAAAAAAAAAAAAAAAAAAAAAAAAAAAAAAAAAAAAAAAAAAAAAAAAAAAAAAAAAAAAAAAAAAAAAAAAAAAAAAAAAAAAAAAAAAAAAAAAAAAAAAAAAAAAAAAAAAAAAAAAAAAAAAAAAAAAAAAAAAAAAAAAAAAAAAAAAAAAAAAAAAAAAAAAAAAAAAAAAAAAAAAAAAAAAAAAAAAAAAAAAAAAAAAAAAAAAAAAAAAAAAAAAAAAAAAAAAAAAAAAAAAAAAAAAAAAAAAAAAAAAAAAAAAAAAAAAAAAAAAAAAAAAAAAAAAAAAAAAAAAAAAAAAAAAAAAAAAAAAAAAAAAAAAAAAAAAAAAAAAAAAAAAAAAAAAAAAAAAAAAAAAAAAAAAAAAAAAAAAAAAAAAAAAAAAAAAAAAAAAAAAAAAAAAAAAAAAAAAAAAAAAAAAAAAAAAAAAAAAAAAAAAAAAAAAAAAAAAAAAAAAAAAAAAAAAAAAAAAAAAAAAAAAAAAAAAAAAAAAAAAAAAAAAAAAAAAAAAAAAAAAAAAAAAAAAAAAAAAAAAAAAAAAAAAAAAAAAAAAAAAAAAAAAAAAAAAAAAAAAAAAAAAAAAAAAAAAAAAAAAAAAAAAAAAAAAAAAAAAAAAAAAAAAAAAAAAAAAAAAAAAAAAAAAAAAAAAAAAAAAAAAAAAAAAAAAAAAAAAAAAAAAAAAAAAAAAAAAAAAAAAAAAAAAAAAAAAAAAAAAAAAAAAAAAAAAAAAAAAAAAAAAAAAAAAAAAAAAAAAAAAAAAAAAAAAAAAAAAAAAAAAAAAAAAAAAAAAAAAAAAAAAAAAAAAAAAAAAAAAAAAAAAAAAAAAAAAAAAAAAAAAAAAAAAAAAAAAAAAAAAAAAAAAAAAAAAAAAAAAAAAAAAAAAAAAAAAAAAAAAAAAAAAAAAAAAAAAAAAAAAAAAAAAAAAAAAAAAAAAAAAAAAAAAAAAAAAAAAAAAAAAAAAAAAAAAAAAAAAAAAAAAAAAAAAAAAAAAAAAAAAAAAAAAAAAAAAAAAAAAAAAAAAAAAAAAAAAAAAAAAAAAAAAAAAAAAAAAAAAAAAAAAAAAAAAAAAAAAAAAAAAAAAAAAAAAAAAAAAAAAAAAAAAAAAAAAAAAAAAAAAAAAAAAAAAAAAAAAAAAAAAAAAAAAAAAAAAAAAAAAAAAAAAAAAAAAAAAAAAAAAAAAAAAAAAAAAAAAAAAAAAAAAAAAAAAAAAAAAAAAAAAAAAAAAAAAAAAAAAAAAAAAAAAAAAAAAAAAAAAAAAAAAAAAAAAAAAAAAAAAAAAAAAAAAAAAAAAAAAAAAAAAAAAAAAAAAAAAAAAAAAAAAAAAAAAAAAAAAAAAAAAAAAAAAAAAAAAAAAAAAAAAAAAAAAAAAAAAAAAAAAAAAAAAAAAAAAAAAAAAAAAAAAAAAAAAAAAAAAAAAAAAAAAAAAAAAAAAAAAAAAAAAAAAAAAAAAAAAAAAAAAAAAAAAAAAAAAAAAAAAAAAAAAAAAAAAAAAAAAAAAAAAAAAAAAAAAAAAAAAAAAAAAAAAAAAAAAAAAAAAAAAAAAAAAAAAAAAAAAAAAAAAAAAAAAAAAAAAAAAAAAAAAAAAAAAAAAAAAAAAAAAAAAAAAAAAAAAAAAAAAAAAAAAAAAAAAAAAAAAAAAAAAAAAAAAAAAAAAAAAAAAAAAAAAAAAAAAAAAAAAAAAAAAAAAAAAAAAAAAAAAAAAAAAAAAAAAAAAAAAAAAAAAAAAAAAAAAAAAAAAAAAAAAAAAAAAAAAAAAAAAAAAAAAAAAAAAAAAAAAAAAAAAAAAAAAAAAAAAAAAAAAAAAAAAAAAAAAAAAAAAAAAAAAAAAAAAAAAAAAAAAAAAAAAAAAAAAAAAAAAAAAAAAAAAAAAAAAAAAAAAAAAAAAAAAAAAAAAAAAAAAAAAAAAAAAAAAAAAAAAAAAAAAAAAAAAAAAAAAAAAAAAAAAAAAAAAAAAAAAAAAAAAAAAAAAAAAAAAAAAAAAAAAAAAAAAAAAAAAAAAAAAAAAAAAAAAAAAAAAAAAAAAAAAAAAAAAAAAAAAAAAAAAAAAAAAAAAAAAAAAAAAAAAAAAAAAAAAAAAAAAAAAAAAAAAAAAAAAAAAAAAAAAAAAAAAAAAAAAAAAAAAAAAAAAAAAAAAAAAAAAAAAAAAAAAAAAAAAAAAAAAAAAAAAAAAAAAAAAAAAAAAAAAAAAAAAAAAAAAAAAAAAAAAAAAAAAAAAAAAAAAAAAAAAAAAAAAAAAAAAAAAAAAAAAAAAAAAAAAAAAAAAAAAAAAAAAAAAAAAAAAAAAAAAAAAAAAAAAAAAAAAAAAAAAAAAAAAAAAAAAAAAAAAAAAAAAAAAAAAAAAAAAAAAAAAAAAAAAAAAAAAAAAAAAAAAAAAAAAAAAAAAAAAAAAAAAAAAAAAAAAAAAAAAAAAAAAAAAAAAAAAAAAAAAAAAAAAAAAAAAAAAAAAAAAAAAAAAAAAAAAAAAAAAAAAAAAAAAAAAAAAAAAAAAAAAAAAAAAAAAAAAAAAAAAAAAAAAAAAAAAAAAAAAAAAAAAAAAAAAAAAAAAAAAAAAAAAAAAAAAAAAAAAAAAAAAAAAAAAAAAAAAAAAAAAAAAAAAAAAAAAAPZYQOjL4Iy+lnwPhM7KWb6uP/R7F1e8pC53Eycd7WEZ9xvQo3KubLtTOlDNS8lAZ/CLxsI13FjEcP/4Awsk8GLTAVg=</c2pa:manifest></metadata><title>فتبيّنوا</title><path d="M69.0 -740.0H230.0V0.0H69.0ZM510.0 230.0Q458.0 230.0 402.5 213.0Q347.0 196.0 299.0 151.0L349.0 48.0Q381.0 57.0 413.5 62.0Q446.0 67.0 477.0 67.0Q537.0 67.0 574.5 49.0Q612.0 31.0 632.0 0.0H585.0Q519.0 0.0 474.0 -12.5Q429.0 -25.0 401.0 -48.5Q373.0 -72.0 360.5 -104.5Q348.0 -137.0 348.0 -177.0Q348.0 -233.0 365.5 -281.0Q383.0 -329.0 413.5 -364.5Q444.0 -400.0 483.5 -420.0Q523.0 -440.0 568.0 -440.0Q633.0 -440.0 677.5 -411.0Q722.0 -382.0 750.0 -332.0Q778.0 -282.0 790.0 -219.0Q792.0 -205.0 794.5 -189.5Q797.0 -174.0 798.0 -157.0H847.0V0.0H784.0Q772.0 39.0 750.5 79.0Q729.0 119.0 695.5 153.5Q662.0 188.0 616.0 209.0Q570.0 230.0 510.0 230.0ZM576.0 -157.0H650.0Q649.0 -166.0 648.0 -174.0Q647.0 -182.0 645.0 -189.0Q638.0 -218.0 624.0 -239.5Q610.0 -261.0 593.0 -272.5Q576.0 -284.0 557.0 -284.0Q542.0 -284.0 528.0 -274.0Q514.0 -264.0 505.0 -245.5Q496.0 -227.0 496.0 -203.0Q496.0 -190.0 503.0 -179.5Q510.0 -169.0 527.5 -163.0Q545.0 -157.0 576.0 -157.0ZM847.0 0.0Q817.0 0.0 817.0 -78.0Q817.0 -157.0 847.0 -157.0H986.0Q990.0 -174.0 993.0 -203.0Q996.0 -232.0 998.0 -261.5Q1000.0 -291.0 999.0 -311.0L1187.0 -377.0Q1169.0 -304.0 1152.0 -241.0Q1141.0 -202.0 1128.0 -166.0Q1146.0 -162.0 1166.0 -160.0Q1189.0 -157.0 1214.0 -157.0H1257.0V0.0Q1188.0 0.0 1141.0 -14.0Q1101.0 -25.0 1073.0 -39.0Q1062.0 -20.0 1050.0 0.0ZM1097.0 -435.0 991.0 -541.0 1092.0 -648.0 1197.0 -541.0ZM1257.0 0.0Q1227.0 0.0 1227.0 -78.0Q1227.0 -157.0 1257.0 -157.0H1419.0Q1423.0 -174.0 1426.0 -203.0Q1429.0 -232.0 1431.0 -261.5Q1433.0 -291.0 1432.0 -311.0L1620.0 -377.0Q1602.0 -304.0 1585.0 -241.0Q1574.0 -201.0 1560.0 -163.0Q1572.0 -161.0 1585.0 -160.0Q1608.0 -157.0 1634.0 -157.0H1699.0V0.0H1677.0Q1608.0 0.0 1560.0 -14.0Q1528.0 -23.0 1503.0 -34.0Q1493.0 -17.0 1483.0 0.0ZM1394.0 269.0 1289.0 162.0 1388.0 56.0 1479.0 148.0 1565.0 56.0 1670.0 162.0 1570.0 269.0 1479.0 177.0ZM1699.0 0.0Q1669.0 0.0 1669.0 -78.0Q1669.0 -157.0 1699.0 -157.0H1838.0Q1842.0 -174.0 1845.0 -203.0Q1848.0 -232.0 1850.0 -261.5Q1852.0 -291.0 1851.0 -311.0L2039.0 -377.0Q2021.0 -304.0 2004.0 -241.0Q1993.0 -202.0 1980.0 -166.0Q1998.0 -162.0 2018.0 -160.0Q2041.0 -157.0 2066.0 -157.0H2109.0V0.0Q2040.0 0.0 1993.0 -14.0Q1953.0 -25.0 1925.0 -39.0Q1914.0 -20.0 1902.0 0.0ZM1900.0 269.0 1794.0 162.0 1895.0 56.0 2000.0 162.0ZM2109.0 0.0Q2079.0 0.0 2079.0 -78.0Q2079.0 -157.0 2109.0 -157.0H2248.0Q2252.0 -174.0 2255.0 -203.0Q2258.0 -232.0 2260.0 -261.5Q2262.0 -291.0 2261.0 -311.0L2449.0 -377.0Q2431.0 -304.0 2414.0 -241.0Q2403.0 -202.0 2390.0 -166.0Q2408.0 -162.0 2428.0 -160.0Q2451.0 -157.0 2476.0 -157.0H2519.0V0.0Q2450.0 0.0 2403.0 -14.0Q2363.0 -25.0 2335.0 -39.0Q2324.0 -20.0 2312.0 0.0ZM2271.0 -435.0 2166.0 -541.0 2265.0 -648.0 2356.0 -556.0 2442.0 -648.0 2547.0 -541.0 2447.0 -435.0 2356.0 -526.0ZM2519.0 0.0Q2489.0 0.0 2489.0 -78.0Q2489.0 -157.0 2519.0 -157.0H2905.0Q2906.0 -171.0 2906.5 -182.0Q2907.0 -193.0 2908.0 -214.0Q2852.0 -200.0 2791.0 -200.0Q2745.0 -200.0 2707.5 -208.5Q2670.0 -217.0 2643.0 -234.5Q2616.0 -252.0 2601.5 -280.5Q2587.0 -309.0 2587.0 -348.0Q2587.0 -400.0 2606.0 -445.0Q2625.0 -490.0 2658.0 -524.5Q2691.0 -559.0 2733.5 -578.5Q2776.0 -598.0 2822.0 -598.0Q2890.0 -598.0 2944.5 -564.0Q2999.0 -530.0 3031.0 -458.5Q3063.0 -387.0 3063.0 -274.0Q3063.0 -240.0 3058.5 -191.0Q3054.0 -142.0 3046.5 -91.5Q3039.0 -41.0 3029.0 0.0ZM2901.0 -335.0Q2896.0 -355.0 2889.0 -375.0Q2879.0 -403.0 2860.5 -422.0Q2842.0 -441.0 2813.0 -441.0Q2793.0 -441.0 2778.0 -430.0Q2763.0 -419.0 2755.5 -403.0Q2748.0 -387.0 2748.0 -370.0Q2748.0 -355.0 2757.0 -346.5Q2766.0 -338.0 2782.5 -334.0Q2799.0 -330.0 2823.0 -330.0Q2850.0 -330.0 2873.0 -332.0Q2887.0 -333.0 2901.0 -335.0ZM2825.0 -682.0 2719.0 -788.0 2820.0 -895.0 2925.0 -788.0Z" fill="#0F1B33"/><path d="M1591.0 -452.0Q1551.0 -452.0 1526.0 -474.0Q1501.0 -452.0 1461.0 -452.0Q1413.0 -452.0 1387.0 -479.5Q1361.0 -507.0 1361.0 -562.0V-619.0H1430.0V-562.0Q1430.0 -543.0 1438.5 -531.5Q1447.0 -520.0 1461.0 -520.0Q1492.0 -520.0 1492.0 -557.0V-594.0H1561.0V-557.0Q1561.0 -520.0 1591.0 -520.0Q1605.0 -520.0 1614.0 -531.0Q1623.0 -542.0 1623.0 -562.0V-619.0H1692.0V-562.0Q1692.0 -509.0 1666.5 -480.5Q1641.0 -452.0 1591.0 -452.0Z" fill="#0B7A66"/></svg>
